<?xml version="1.0" encoding="utf-8"?>
<svg id="master-artboard" viewBox="0 0 2142.92724609375 981.8677978515625" version="1.1" xmlns="http://www.w3.org/2000/svg" x="0px" y="0px" style="enable-background:new 0 0 1400 980;" width="2142.92724609375px" height="981.8677978515625px"><rect id="ee-background" x="0" y="0" width="2142.92724609375" height="981.8677978515625" style="fill: white; fill-opacity: 0; pointer-events: none;"/>

<path d="M 0 0 H 1400 V 980 H 0 V 0 Z" class="st0" style="fill: rgb(118, 154, 227);" transform="matrix(1.532922101702009, 0, 0, 1.532922101702009, -3.1632091999053955, -261.1318298339844)"/>
<g transform="matrix(0.627375066280365, -0.2548797130584717, 0.2548797130584717, 0.627375066280365, 1108.895431388218, 199.71566772460938)">
	<path class="st1" d="M804.4,51H136.7c-3.5,0-6,2.8-5.6,6.3l17.6,152.4c0.4,3.5,3.6,6.4,7.1,6.4h39.8c-0.6,1-1,2.7-1,4.2&#10;&#9;&#9;c0,1,0.1,1.8,0.4,2.8h-39.2c-3.5,0-5.8,2.2-5.8,5.2v350.2c0,3,2.3,5.6,5.8,5.6h629.6c3.5,0,6.6-2.7,6.6-5.6V228.2&#10;&#9;&#9;c0-3-3.1-5.2-6.6-5.2h-37.2c0.3-1,0.4-1.8,0.4-2.8c0-1.5-0.4-3.2-1-4.2h37.8c3.5,0,6.7-2.9,7.1-6.4l17.6-152.3&#10;&#9;&#9;C810.5,53.8,807.9,51,804.4,51z M713,223H230.1c0.3-1,0.4-1.8,0.4-2.8c0-1.5-0.4-3.2-1-4.2h484.1c-0.6,1-1,2.7-1,4.2&#10;&#9;&#9;C712.6,221.2,712.8,222,713,223z" style="opacity: 0.1;"/>
	<g>
		<path class="st2" d="M797,573.9c0,3-3.6,5.1-7.1,5.1H160.3c-3.5,0-6.3-2.2-6.3-5.1V223.7c0-3,2.8-4.7,6.3-4.7h629.6&#10;&#9;&#9;&#9;c3.5,0,7.1,1.7,7.1,4.7V573.9z" style="fill: rgb(255, 255, 255);"/>
		<path class="st2" d="M797,205.4c-0.4,3.5-3.6,6.6-7.1,6.6H160.3c-3.5,0-6.7-3.2-7.1-6.6L135.6,53.2c-0.4-3.5,2.1-6.2,5.6-6.2&#10;&#9;&#9;&#9;h667.7c3.5,0,6,2.7,5.6,6.2L797,205.4z" style="fill: rgb(255, 255, 255);"/>
		<path d="M 778.5 194 L 171.6999969482422 194 L 155.1999969482422 64 L 795 64 Z" class="st3" style="fill: rgb(40, 40, 40);"/>
		<path class="st4" d="M235,216.6c0,5.2-4.2,9.4-9.6,9.4h-16.5c-5.4,0-9.9-4.2-9.9-9.4v-1.1c0-5.2,4.5-9.4,9.9-9.4h16.5&#10;&#9;&#9;&#9;c5.4,0,9.6,4.2,9.6,9.4V216.6z" style="fill: rgb(234, 234, 234);"/>
		<path class="st4" d="M754,216.6c0,5.2-4.8,9.4-10.2,9.4h-16.5c-5.4,0-9.3-4.2-9.3-9.4v-1.1c0-5.2,3.9-9.4,9.3-9.4h16.5&#10;&#9;&#9;&#9;c5.4,0,10.2,4.2,10.2,9.4V216.6z" style="fill: rgb(234, 234, 234);"/>
		<g>
			<path d="M 176 239 H 775 V 240 H 176 V 239 Z" class="st5" style="fill: rgb(232, 232, 232);"/>
		</g>
		<path d="M 481.399994 55.299999 A 6 4.4 0 0 1 475.399994 59.699999 A 6 4.4 0 0 1 469.399994 55.299999 A 6 4.4 0 0 1 475.399994 50.899999 A 6 4.4 0 0 1 481.399994 55.299999 Z" class="st3" style="fill: rgb(40, 40, 40);"/>
		<g>
			<g>
				<path class="st3" d="M773.1,431.4c0,2.1-1,3.8-2.2,3.8h-24.7c-1.2,0-2.2-1.7-2.2-3.8v-32.8c0-2.1,1-3.8,2.2-3.8H771&#10;&#9;&#9;&#9;&#9;&#9;c1.2,0,2.2,1.7,2.2,3.8V431.4z" style="fill: rgb(40, 40, 40);"/>
				<path class="st3" d="M737.6,433.1c0,1.2-1,2.2-2.2,2.2h-24.7c-1.2,0-2.2-1-2.2-2.2v-18.6c0-1.2,1-2.2,2.2-2.2h24.7&#10;&#9;&#9;&#9;&#9;&#9;c1.2,0,2.2,1,2.2,2.2V433.1z" style="fill: rgb(40, 40, 40);"/>
				<path class="st3" d="M702.1,433.1c0,1.2-1,2.2-2.2,2.2h-24.7c-1.2,0-2.2-1-2.2-2.2v-18.6c0-1.2,1-2.2,2.2-2.2H700&#10;&#9;&#9;&#9;&#9;&#9;c1.2,0,2.2,1,2.2,2.2V433.1z" style="fill: rgb(40, 40, 40);"/>
				<path class="st3" d="M666.6,433.1c0,1.2-1,2.2-2.2,2.2h-24.7c-1.2,0-2.2-1-2.2-2.2v-18.6c0-1.2,1-2.2,2.2-2.2h24.7&#10;&#9;&#9;&#9;&#9;&#9;c1.2,0,2.2,1,2.2,2.2V433.1z" style="fill: rgb(40, 40, 40);"/>
				<path class="st3" d="M631.1,433.1c0,1.2-1.5,2.2-3.3,2.2h-37.8c-1.8,0-3.3-1-3.3-2.2v-18.6c0-1.2,1.5-2.2,3.3-2.2h37.8&#10;&#9;&#9;&#9;&#9;&#9;c1.8,0,3.3,1,3.3,2.2V433.1z" style="fill: rgb(40, 40, 40);"/>
				<path class="st3" d="M578.6,433.1c0,1.2-1,2.2-2.2,2.2h-24.7c-1.2,0-2.2-1-2.2-2.2v-18.6c0-1.2,1-2.2,2.2-2.2h24.7&#10;&#9;&#9;&#9;&#9;&#9;c1.2,0,2.2,1,2.2,2.2V433.1z" style="fill: rgb(40, 40, 40);"/>
				<path class="st3" d="M543.6,433.1c0,1.2-1,2.2-2.2,2.2h-24.7c-1.2,0-2.2-1-2.2-2.2v-18.6c0-1.2,1-2.2,2.2-2.2h24.7&#10;&#9;&#9;&#9;&#9;&#9;c1.2,0,2.2,1,2.2,2.2V433.1z" style="fill: rgb(40, 40, 40);"/>
				<path class="st3" d="M508.1,433.1c0,1.2-1,2.2-2.2,2.2h-24.7c-1.2,0-2.2-1-2.2-2.2v-18.6c0-1.2,1-2.2,2.2-2.2h24.7&#10;&#9;&#9;&#9;&#9;&#9;c1.2,0,2.2,1,2.2,2.2V433.1z" style="fill: rgb(40, 40, 40);"/>
				<path class="st3" d="M472.6,433.1c0,1.2-1,2.2-2.2,2.2h-24.7c-1.2,0-2.2-1-2.2-2.2v-18.6c0-1.2,1-2.2,2.2-2.2h24.7&#10;&#9;&#9;&#9;&#9;&#9;c1.2,0,2.2,1,2.2,2.2V433.1z" style="fill: rgb(40, 40, 40);"/>
				<path class="st3" d="M437.1,433.1c0,1.2-1,2.2-2.2,2.2h-24.7c-1.2,0-2.2-1-2.2-2.2v-18.6c0-1.2,1-2.2,2.2-2.2h24.7&#10;&#9;&#9;&#9;&#9;&#9;c1.2,0,2.2,1,2.2,2.2V433.1z" style="fill: rgb(40, 40, 40);"/>
				<path class="st3" d="M401.6,433.1c0,1.2-1,2.2-2.2,2.2h-24.7c-1.2,0-2.2-1-2.2-2.2v-18.6c0-1.2,1-2.2,2.2-2.2h24.7&#10;&#9;&#9;&#9;&#9;&#9;c1.2,0,2.2,1,2.2,2.2V433.1z" style="fill: rgb(40, 40, 40);"/>
				<path class="st3" d="M366.1,433.1c0,1.2-1,2.2-2.2,2.2h-24.7c-1.2,0-2.2-1-2.2-2.2v-18.6c0-1.2,1-2.2,2.2-2.2h24.7&#10;&#9;&#9;&#9;&#9;&#9;c1.2,0,2.2,1,2.2,2.2V433.1z" style="fill: rgb(40, 40, 40);"/>
				<path class="st3" d="M330.6,433.1c0,1.2-1,2.2-2.2,2.2h-24.7c-1.2,0-2.2-1-2.2-2.2v-18.6c0-1.2,1-2.2,2.2-2.2h24.7&#10;&#9;&#9;&#9;&#9;&#9;c1.2,0,2.2,1,2.2,2.2V433.1z" style="fill: rgb(40, 40, 40);"/>
				<path class="st3" d="M493.6,433.1c0,1.2-7.6,2.2-17.1,2.2H283.1c-9.4,0-17.1-1-17.1-2.2v-18.6c0-1.2,7.6-2.2,17.1-2.2h193.4&#10;&#9;&#9;&#9;&#9;&#9;c9.4,0,17.1,1,17.1,2.2V433.1z" style="fill: rgb(40, 40, 40);"/>
				<path class="st3" d="M259.5,433.1c0,1.2-1,2.2-2.2,2.2h-24.6c-1.2,0-2.2-1-2.2-2.2v-18.6c0-1.2,1-2.2,2.2-2.2h24.6&#10;&#9;&#9;&#9;&#9;&#9;c1.2,0,2.2,1,2.2,2.2V433.1z" style="fill: rgb(40, 40, 40);"/>
				<path class="st3" d="M226,433.1c0,1.2-0.5,2.2-1.1,2.2h-12.3c-0.6,0-1.1-1-1.1-2.2v-18.6c0-1.2,0.5-2.2,1.1-2.2H225&#10;&#9;&#9;&#9;&#9;&#9;c0.6,0,1.1,1,1.1,2.2V433.1z" style="fill: rgb(40, 40, 40);"/>
				<path class="st3" d="M217,433.1c0,1.2-1.4,2.2-3.1,2.2h-34.9c-1.7,0-3.1-1-3.1-2.2v-18.6c0-1.2,1.4-2.2,3.1-2.2H214&#10;&#9;&#9;&#9;&#9;&#9;c1.7,0,3.1,1,3.1,2.2V433.1z" style="fill: rgb(40, 40, 40);"/>
				<path class="st3" d="M773.1,404.1c0,1.2-1,2.2-2.2,2.2h-24.7c-1.2,0-2.2-1-2.2-2.2v-18.6c0-1.2,1-2.2,2.2-2.2H771&#10;&#9;&#9;&#9;&#9;&#9;c1.2,0,2.2,1,2.2,2.2V404.1z" style="fill: rgb(40, 40, 40);"/>
				<path class="st3" d="M737.6,404.1c0,1.2-1,2.2-2.2,2.2h-24.7c-1.2,0-2.2-1-2.2-2.2v-18.6c0-1.2,1-2.2,2.2-2.2h24.7&#10;&#9;&#9;&#9;&#9;&#9;c1.2,0,2.2,1,2.2,2.2V404.1z" style="fill: rgb(40, 40, 40);"/>
				<path class="st3" d="M702.1,404.1c0,1.2-1,2.2-2.2,2.2h-24.7c-1.2,0-2.2-1-2.2-2.2v-18.6c0-1.2,1-2.2,2.2-2.2H700&#10;&#9;&#9;&#9;&#9;&#9;c1.2,0,2.2,1,2.2,2.2V404.1z" style="fill: rgb(40, 40, 40);"/>
				<path class="st3" d="M666.6,404.1c0,1.2-1,2.2-2.2,2.2h-24.7c-1.2,0-2.2-1-2.2-2.2v-18.6c0-1.2,1-2.2,2.2-2.2h24.7&#10;&#9;&#9;&#9;&#9;&#9;c1.2,0,2.2,1,2.2,2.2V404.1z" style="fill: rgb(40, 40, 40);"/>
				<path class="st3" d="M631.1,404.1c0,1.2-1.5,2.2-3.3,2.2h-37.8c-1.8,0-3.3-1-3.3-2.2v-18.6c0-1.2,1.5-2.2,3.3-2.2h37.8&#10;&#9;&#9;&#9;&#9;&#9;c1.8,0,3.3,1,3.3,2.2V404.1z" style="fill: rgb(40, 40, 40);"/>
				<path class="st3" d="M578.6,404.1c0,1.2-1,2.2-2.2,2.2h-24.7c-1.2,0-2.2-1-2.2-2.2v-18.6c0-1.2,1-2.2,2.2-2.2h24.7&#10;&#9;&#9;&#9;&#9;&#9;c1.2,0,2.2,1,2.2,2.2V404.1z" style="fill: rgb(40, 40, 40);"/>
				<path class="st3" d="M543.1,404.1c0,1.2-1,2.2-2.2,2.2h-24.7c-1.2,0-2.2-1-2.2-2.2v-18.6c0-1.2,1-2.2,2.2-2.2h24.7&#10;&#9;&#9;&#9;&#9;&#9;c1.2,0,2.2,1,2.2,2.2V404.1z" style="fill: rgb(40, 40, 40);"/>
				<path class="st3" d="M507.6,404.1c0,1.2-1,2.2-2.2,2.2h-24.7c-1.2,0-2.2-1-2.2-2.2v-18.6c0-1.2,1-2.2,2.2-2.2h24.7&#10;&#9;&#9;&#9;&#9;&#9;c1.2,0,2.2,1,2.2,2.2V404.1z" style="fill: rgb(40, 40, 40);"/>
				<path class="st3" d="M472.1,404.1c0,1.2-1,2.2-2.2,2.2h-24.7c-1.2,0-2.2-1-2.2-2.2v-18.6c0-1.2,1-2.2,2.2-2.2h24.7&#10;&#9;&#9;&#9;&#9;&#9;c1.2,0,2.2,1,2.2,2.2V404.1z" style="fill: rgb(40, 40, 40);"/>
				<path class="st3" d="M436.6,404.1c0,1.2-1,2.2-2.2,2.2h-24.7c-1.2,0-2.2-1-2.2-2.2v-18.6c0-1.2,1-2.2,2.2-2.2h24.7&#10;&#9;&#9;&#9;&#9;&#9;c1.2,0,2.2,1,2.2,2.2V404.1z" style="fill: rgb(40, 40, 40);"/>
				<path class="st3" d="M401.1,404.1c0,1.2-1,2.2-2.2,2.2h-24.7c-1.2,0-2.2-1-2.2-2.2v-18.6c0-1.2,1-2.2,2.2-2.2h24.7&#10;&#9;&#9;&#9;&#9;&#9;c1.2,0,2.2,1,2.2,2.2V404.1z" style="fill: rgb(40, 40, 40);"/>
				<path class="st3" d="M365.6,404.1c0,1.2-1,2.2-2.2,2.2h-24.7c-1.2,0-2.2-1-2.2-2.2v-18.6c0-1.2,1-2.2,2.2-2.2h24.7&#10;&#9;&#9;&#9;&#9;&#9;c1.2,0,2.2,1,2.2,2.2V404.1z" style="fill: rgb(40, 40, 40);"/>
				<path class="st3" d="M330.1,404.1c0,1.2-1,2.2-2.2,2.2h-24.6c-1.2,0-2.2-1-2.2-2.2v-18.6c0-1.2,1-2.2,2.2-2.2h24.6&#10;&#9;&#9;&#9;&#9;&#9;c1.2,0,2.2,1,2.2,2.2V404.1z" style="fill: rgb(40, 40, 40);"/>
				<path class="st3" d="M294.6,404.1c0,1.2-1,2.2-2.2,2.2h-24.7c-1.2,0-2.2-1-2.2-2.2v-18.6c0-1.2,1-2.2,2.2-2.2h24.7&#10;&#9;&#9;&#9;&#9;&#9;c1.2,0,2.2,1,2.2,2.2V404.1z" style="fill: rgb(40, 40, 40);"/>
				<path class="st3" d="M259,404.1c0,1.2-1,2.2-2.2,2.2h-24.7c-1.2,0-2.2-1-2.2-2.2v-18.6c0-1.2,1-2.2,2.2-2.2h24.7&#10;&#9;&#9;&#9;&#9;&#9;c1.2,0,2.2,1,2.2,2.2V404.1z" style="fill: rgb(40, 40, 40);"/>
				<path class="st3" d="M226,404.1c0,1.2-0.5,2.2-1.1,2.2h-12.3c-0.6,0-1.1-1-1.1-2.2v-18.6c0-1.2,0.5-2.2,1.1-2.2H225&#10;&#9;&#9;&#9;&#9;&#9;c0.6,0,1.1,1,1.1,2.2V404.1z" style="fill: rgb(40, 40, 40);"/>
				<path class="st3" d="M222,404.1c0,1.2-1.5,2.2-3.5,2.2h-39.1c-1.9,0-3.5-1-3.5-2.2v-18.6c0-1.2,1.5-2.2,3.5-2.2h39.1&#10;&#9;&#9;&#9;&#9;&#9;c1.9,0,3.5,1,3.5,2.2V404.1z" style="fill: rgb(40, 40, 40);"/>
				<path class="st3" d="M773.1,375.1c0,1.2-1,2.2-2.2,2.2h-24.7c-1.2,0-2.2-1-2.2-2.2v-18.6c0-1.2,1-2.2,2.2-2.2H771&#10;&#9;&#9;&#9;&#9;&#9;c1.2,0,2.2,1,2.2,2.2V375.1z" style="fill: rgb(40, 40, 40);"/>
				<path class="st3" d="M737.6,375.1c0,1.2-1,2.2-2.2,2.2h-24.7c-1.2,0-2.2-1-2.2-2.2v-18.6c0-1.2,1-2.2,2.2-2.2h24.7&#10;&#9;&#9;&#9;&#9;&#9;c1.2,0,2.2,1,2.2,2.2V375.1z" style="fill: rgb(40, 40, 40);"/>
				<path class="st3" d="M702.1,375.1c0,1.2-1,2.2-2.2,2.2h-24.7c-1.2,0-2.2-1-2.2-2.2v-18.6c0-1.2,1-2.2,2.2-2.2H700&#10;&#9;&#9;&#9;&#9;&#9;c1.2,0,2.2,1,2.2,2.2V375.1z" style="fill: rgb(40, 40, 40);"/>
				<path class="st3" d="M666.6,375.1c0,1.2-1,2.2-2.2,2.2h-24.7c-1.2,0-2.2-1-2.2-2.2v-18.6c0-1.2,1-2.2,2.2-2.2h24.7&#10;&#9;&#9;&#9;&#9;&#9;c1.2,0,2.2,1,2.2,2.2V375.1z" style="fill: rgb(40, 40, 40);"/>
				<path class="st3" d="M631.1,375.1c0,1.2-1.7,2.2-3.8,2.2h-42.5c-2.1,0-3.8-1-3.8-2.2v-18.6c0-1.2,1.7-2.2,3.8-2.2h42.5&#10;&#9;&#9;&#9;&#9;&#9;c2.1,0,3.8,1,3.8,2.2V375.1z" style="fill: rgb(40, 40, 40);"/>
				<path class="st3" d="M595.6,375.1c0,1.2-1,2.2-2.2,2.2h-24.7c-1.2,0-2.2-1-2.2-2.2v-18.6c0-1.2,1-2.2,2.2-2.2h24.7&#10;&#9;&#9;&#9;&#9;&#9;c1.2,0,2.2,1,2.2,2.2V375.1z" style="fill: rgb(40, 40, 40);"/>
				<path class="st3" d="M560.1,375.1c0,1.2-1,2.2-2.2,2.2h-24.7c-1.2,0-2.2-1-2.2-2.2v-18.6c0-1.2,1-2.2,2.2-2.2h24.7&#10;&#9;&#9;&#9;&#9;&#9;c1.2,0,2.2,1,2.2,2.2V375.1z" style="fill: rgb(40, 40, 40);"/>
				<path class="st3" d="M524.6,375.1c0,1.2-1,2.2-2.2,2.2h-24.7c-1.2,0-2.2-1-2.2-2.2v-18.6c0-1.2,1-2.2,2.2-2.2h24.7&#10;&#9;&#9;&#9;&#9;&#9;c1.2,0,2.2,1,2.2,2.2V375.1z" style="fill: rgb(40, 40, 40);"/>
				<path class="st3" d="M489.1,375.1c0,1.2-1,2.2-2.2,2.2h-24.7c-1.2,0-2.2-1-2.2-2.2v-18.6c0-1.2,1-2.2,2.2-2.2h24.7&#10;&#9;&#9;&#9;&#9;&#9;c1.2,0,2.2,1,2.2,2.2V375.1z" style="fill: rgb(40, 40, 40);"/>
				<path class="st3" d="M453.6,375.1c0,1.2-1,2.2-2.2,2.2h-24.7c-1.2,0-2.2-1-2.2-2.2v-18.6c0-1.2,1-2.2,2.2-2.2h24.7&#10;&#9;&#9;&#9;&#9;&#9;c1.2,0,2.2,1,2.2,2.2V375.1z" style="fill: rgb(40, 40, 40);"/>
				<path class="st3" d="M418.1,375.1c0,1.2-1,2.2-2.2,2.2h-24.7c-1.2,0-2.2-1-2.2-2.2v-18.6c0-1.2,1-2.2,2.2-2.2h24.7&#10;&#9;&#9;&#9;&#9;&#9;c1.2,0,2.2,1,2.2,2.2V375.1z" style="fill: rgb(40, 40, 40);"/>
				<path class="st3" d="M382.6,375.1c0,1.2-1,2.2-2.2,2.2h-24.6c-1.2,0-2.2-1-2.2-2.2v-18.6c0-1.2,1-2.2,2.2-2.2h24.6&#10;&#9;&#9;&#9;&#9;&#9;c1.2,0,2.2,1,2.2,2.2V375.1z" style="fill: rgb(40, 40, 40);"/>
				<path class="st3" d="M347.1,375.1c0,1.2-1,2.2-2.2,2.2h-24.7c-1.2,0-2.2-1-2.2-2.2v-18.6c0-1.2,1-2.2,2.2-2.2h24.7&#10;&#9;&#9;&#9;&#9;&#9;c1.2,0,2.2,1,2.2,2.2V375.1z" style="fill: rgb(40, 40, 40);"/>
				<path class="st3" d="M311.6,375.1c0,1.2-1,2.2-2.2,2.2h-24.7c-1.2,0-2.2-1-2.2-2.2v-18.6c0-1.2,1-2.2,2.2-2.2h24.7&#10;&#9;&#9;&#9;&#9;&#9;c1.2,0,2.2,1,2.2,2.2V375.1z" style="fill: rgb(40, 40, 40);"/>
				<path class="st3" d="M276.1,375.1c0,1.2-1,2.2-2.2,2.2h-24.7c-1.2,0-2.2-1-2.2-2.2v-18.6c0-1.2,1-2.2,2.2-2.2h24.7&#10;&#9;&#9;&#9;&#9;&#9;c1.2,0,2.2,1,2.2,2.2V375.1z" style="fill: rgb(40, 40, 40);"/>
				<path class="st3" d="M240.5,375.1c0,1.2-1,2.2-2.2,2.2h-24.7c-1.2,0-2.2-1-2.2-2.2v-18.6c0-1.2,1-2.2,2.2-2.2h24.7&#10;&#9;&#9;&#9;&#9;&#9;c1.2,0,2.2,1,2.2,2.2V375.1z" style="fill: rgb(40, 40, 40);"/>
				<path class="st3" d="M222,375.1c0,1.2-1.5,2.2-3.5,2.2h-39.1c-1.9,0-3.5-1-3.5-2.2v-18.6c0-1.2,1.5-2.2,3.5-2.2h39.1&#10;&#9;&#9;&#9;&#9;&#9;c1.9,0,3.5,1,3.5,2.2V375.1z" style="fill: rgb(40, 40, 40);"/>
				<path class="st3" d="M773.1,344.9c0,1.9-1,3.4-2.2,3.4h-24.7c-1.2,0-2.2-1.5-2.2-3.4v-29.2c0-1.9,1-3.4,2.2-3.4H771&#10;&#9;&#9;&#9;&#9;&#9;c1.2,0,2.2,1.5,2.2,3.4V344.9z" style="fill: rgb(40, 40, 40);"/>
				<path class="st3" d="M737.6,346.1c0,1.2-1,2.2-2.2,2.2h-24.7c-1.2,0-2.2-1-2.2-2.2v-18.6c0-1.2,1-2.2,2.2-2.2h24.7&#10;&#9;&#9;&#9;&#9;&#9;c1.2,0,2.2,1,2.2,2.2V346.1z" style="fill: rgb(40, 40, 40);"/>
				<path class="st3" d="M702.1,346.1c0,1.2-1,2.2-2.2,2.2h-24.7c-1.2,0-2.2-1-2.2-2.2v-18.6c0-1.2,1-2.2,2.2-2.2H700&#10;&#9;&#9;&#9;&#9;&#9;c1.2,0,2.2,1,2.2,2.2V346.1z" style="fill: rgb(40, 40, 40);"/>
				<path class="st3" d="M666.6,346.1c0,1.2-1,2.2-2.2,2.2h-24.7c-1.2,0-2.2-1-2.2-2.2v-18.6c0-1.2,1-2.2,2.2-2.2h24.7&#10;&#9;&#9;&#9;&#9;&#9;c1.2,0,2.2,1,2.2,2.2V346.1z" style="fill: rgb(40, 40, 40);"/>
				<path class="st3" d="M631.1,357c0,1.8-1.5,3.3-3.3,3.3h-37.8c-1.8,0-3.3-1.5-3.3-3.3v-28.4c0-1.8,1.5-3.3,3.3-3.3h37.8&#10;&#9;&#9;&#9;&#9;&#9;c1.8,0,3.3,1.5,3.3,3.3V357z" style="fill: rgb(40, 40, 40);"/>
				<path class="st3" d="M581.1,346.1c0,1.2-1,2.2-2.3,2.2h-25.5c-1.2,0-2.3-1-2.3-2.2v-18.6c0-1.2,1-2.2,2.3-2.2h25.5&#10;&#9;&#9;&#9;&#9;&#9;c1.2,0,2.3,1,2.3,2.2V346.1z" style="fill: rgb(40, 40, 40);"/>
				<path class="st3" d="M543.6,346.1c0,1.2-1,2.2-2.2,2.2h-24.7c-1.2,0-2.2-1-2.2-2.2v-18.6c0-1.2,1-2.2,2.2-2.2h24.7&#10;&#9;&#9;&#9;&#9;&#9;c1.2,0,2.2,1,2.2,2.2V346.1z" style="fill: rgb(40, 40, 40);"/>
				<path class="st3" d="M508.1,346.1c0,1.2-1,2.2-2.2,2.2h-24.7c-1.2,0-2.2-1-2.2-2.2v-18.6c0-1.2,1-2.2,2.2-2.2h24.7&#10;&#9;&#9;&#9;&#9;&#9;c1.2,0,2.2,1,2.2,2.2V346.1z" style="fill: rgb(40, 40, 40);"/>
				<path class="st3" d="M472.6,346.1c0,1.2-1,2.2-2.2,2.2h-24.7c-1.2,0-2.2-1-2.2-2.2v-18.6c0-1.2,1-2.2,2.2-2.2h24.7&#10;&#9;&#9;&#9;&#9;&#9;c1.2,0,2.2,1,2.2,2.2V346.1z" style="fill: rgb(40, 40, 40);"/>
				<path class="st3" d="M437.1,346.1c0,1.2-1,2.2-2.2,2.2h-24.7c-1.2,0-2.2-1-2.2-2.2v-18.6c0-1.2,1-2.2,2.2-2.2h24.7&#10;&#9;&#9;&#9;&#9;&#9;c1.2,0,2.2,1,2.2,2.2V346.1z" style="fill: rgb(40, 40, 40);"/>
				<path class="st3" d="M401.6,346.1c0,1.2-1,2.2-2.2,2.2h-24.7c-1.2,0-2.2-1-2.2-2.2v-18.6c0-1.2,1-2.2,2.2-2.2h24.7&#10;&#9;&#9;&#9;&#9;&#9;c1.2,0,2.2,1,2.2,2.2V346.1z" style="fill: rgb(40, 40, 40);"/>
				<path class="st3" d="M366.1,346.1c0,1.2-1,2.2-2.2,2.2h-24.7c-1.2,0-2.2-1-2.2-2.2v-18.6c0-1.2,1-2.2,2.2-2.2h24.7&#10;&#9;&#9;&#9;&#9;&#9;c1.2,0,2.2,1,2.2,2.2V346.1z" style="fill: rgb(40, 40, 40);"/>
				<path class="st3" d="M330.6,346.1c0,1.2-1,2.2-2.2,2.2h-24.7c-1.2,0-2.2-1-2.2-2.2v-18.6c0-1.2,1-2.2,2.2-2.2h24.7&#10;&#9;&#9;&#9;&#9;&#9;c1.2,0,2.2,1,2.2,2.2V346.1z" style="fill: rgb(40, 40, 40);"/>
				<path class="st3" d="M295.1,346.1c0,1.2-1,2.2-2.2,2.2h-24.7c-1.2,0-2.2-1-2.2-2.2v-18.6c0-1.2,1-2.2,2.2-2.2h24.7&#10;&#9;&#9;&#9;&#9;&#9;c1.2,0,2.2,1,2.2,2.2V346.1z" style="fill: rgb(40, 40, 40);"/>
				<path class="st3" d="M259.5,346.1c0,1.2-1,2.2-2.2,2.2h-24.6c-1.2,0-2.2-1-2.2-2.2v-18.6c0-1.2,1-2.2,2.2-2.2h24.6&#10;&#9;&#9;&#9;&#9;&#9;c1.2,0,2.2,1,2.2,2.2V346.1z" style="fill: rgb(40, 40, 40);"/>
				<path class="st3" d="M222,346.1c0,1.2-1.5,2.2-3.5,2.2h-39.1c-1.9,0-3.5-1-3.5-2.2v-18.6c0-1.2,1.5-2.2,3.5-2.2h39.1&#10;&#9;&#9;&#9;&#9;&#9;c1.9,0,3.5,1,3.5,2.2V346.1z" style="fill: rgb(40, 40, 40);"/>
				<g>
					<path class="st3" d="M773.1,317.2c0,1.2-1,2.2-2.2,2.2h-24.7c-1.2,0-2.2-1-2.2-2.2v-18.6c0-1.2,1-2.2,2.2-2.2H771&#10;&#9;&#9;&#9;&#9;&#9;&#9;c1.2,0,2.2,1,2.2,2.2V317.2z" style="fill: rgb(40, 40, 40);"/>
				</g>
				<g>
					<path class="st3" d="M737.6,317.2c0,1.2-1,2.2-2.2,2.2h-24.7c-1.2,0-2.2-1-2.2-2.2v-18.6c0-1.2,1-2.2,2.2-2.2h24.7&#10;&#9;&#9;&#9;&#9;&#9;&#9;c1.2,0,2.2,1,2.2,2.2V317.2z" style="fill: rgb(40, 40, 40);"/>
				</g>
				<g>
					<path class="st3" d="M702.1,317.2c0,1.2-1,2.2-2.2,2.2h-24.7c-1.2,0-2.2-1-2.2-2.2v-18.6c0-1.2,1-2.2,2.2-2.2H700&#10;&#9;&#9;&#9;&#9;&#9;&#9;c1.2,0,2.2,1,2.2,2.2V317.2z" style="fill: rgb(40, 40, 40);"/>
				</g>
				<g>
					<path class="st3" d="M666.6,317.2c0,1.2-1,2.2-2.2,2.2h-24.7c-1.2,0-2.2-1-2.2-2.2v-18.6c0-1.2,1-2.2,2.2-2.2h24.7&#10;&#9;&#9;&#9;&#9;&#9;&#9;c1.2,0,2.2,1,2.2,2.2V317.2z" style="fill: rgb(40, 40, 40);"/>
				</g>
				<g>
					<path class="st3" d="M631.1,317.2c0,1.2-2,2.2-4.4,2.2h-50.2c-2.4,0-4.4-1-4.4-2.2v-18.6c0-1.2,2-2.2,4.4-2.2h50.2&#10;&#9;&#9;&#9;&#9;&#9;&#9;c2.4,0,4.4,1,4.4,2.2V317.2z" style="fill: rgb(40, 40, 40);"/>
				</g>
				<g>
					<path class="st3" d="M595.6,317.2c0,1.2-1,2.2-2.2,2.2h-24.7c-1.2,0-2.2-1-2.2-2.2v-18.6c0-1.2,1-2.2,2.2-2.2h24.7&#10;&#9;&#9;&#9;&#9;&#9;&#9;c1.2,0,2.2,1,2.2,2.2V317.2z" style="fill: rgb(40, 40, 40);"/>
				</g>
				<g>
					<path class="st3" d="M560.1,317.2c0,1.2-1,2.2-2.2,2.2h-24.7c-1.2,0-2.2-1-2.2-2.2v-18.6c0-1.2,1-2.2,2.2-2.2h24.7&#10;&#9;&#9;&#9;&#9;&#9;&#9;c1.2,0,2.2,1,2.2,2.2V317.2z" style="fill: rgb(40, 40, 40);"/>
				</g>
				<g>
					<path class="st3" d="M524.6,317.2c0,1.2-1,2.2-2.2,2.2h-24.7c-1.2,0-2.2-1-2.2-2.2v-18.6c0-1.2,1-2.2,2.2-2.2h24.7&#10;&#9;&#9;&#9;&#9;&#9;&#9;c1.2,0,2.2,1,2.2,2.2V317.2z" style="fill: rgb(40, 40, 40);"/>
				</g>
				<g>
					<path class="st3" d="M489.1,317.2c0,1.2-1,2.2-2.2,2.2h-24.7c-1.2,0-2.2-1-2.2-2.2v-18.6c0-1.2,1-2.2,2.2-2.2h24.7&#10;&#9;&#9;&#9;&#9;&#9;&#9;c1.2,0,2.2,1,2.2,2.2V317.2z" style="fill: rgb(40, 40, 40);"/>
				</g>
				<g>
					<path class="st3" d="M453.6,317.2c0,1.2-1,2.2-2.2,2.2h-24.7c-1.2,0-2.2-1-2.2-2.2v-18.6c0-1.2,1-2.2,2.2-2.2h24.7&#10;&#9;&#9;&#9;&#9;&#9;&#9;c1.2,0,2.2,1,2.2,2.2V317.2z" style="fill: rgb(40, 40, 40);"/>
				</g>
				<g>
					<path class="st3" d="M418.1,317.2c0,1.2-1,2.2-2.2,2.2h-24.7c-1.2,0-2.2-1-2.2-2.2v-18.6c0-1.2,1-2.2,2.2-2.2h24.7&#10;&#9;&#9;&#9;&#9;&#9;&#9;c1.2,0,2.2,1,2.2,2.2V317.2z" style="fill: rgb(40, 40, 40);"/>
				</g>
				<g>
					<path class="st3" d="M382.6,317.2c0,1.2-1,2.2-2.2,2.2h-24.6c-1.2,0-2.2-1-2.2-2.2v-18.6c0-1.2,1-2.2,2.2-2.2h24.6&#10;&#9;&#9;&#9;&#9;&#9;&#9;c1.2,0,2.2,1,2.2,2.2V317.2z" style="fill: rgb(40, 40, 40);"/>
				</g>
				<g>
					<path class="st3" d="M347.1,317.2c0,1.2-1,2.2-2.2,2.2h-24.7c-1.2,0-2.2-1-2.2-2.2v-18.6c0-1.2,1-2.2,2.2-2.2h24.7&#10;&#9;&#9;&#9;&#9;&#9;&#9;c1.2,0,2.2,1,2.2,2.2V317.2z" style="fill: rgb(40, 40, 40);"/>
				</g>
				<g>
					<path class="st3" d="M311.6,317.2c0,1.2-1,2.2-2.2,2.2h-24.7c-1.2,0-2.2-1-2.2-2.2v-18.6c0-1.2,1-2.2,2.2-2.2h24.7&#10;&#9;&#9;&#9;&#9;&#9;&#9;c1.2,0,2.2,1,2.2,2.2V317.2z" style="fill: rgb(40, 40, 40);"/>
				</g>
				<g>
					<path class="st3" d="M276.1,317.2c0,1.2-1,2.2-2.2,2.2h-24.7c-1.2,0-2.2-1-2.2-2.2v-18.6c0-1.2,1-2.2,2.2-2.2h24.7&#10;&#9;&#9;&#9;&#9;&#9;&#9;c1.2,0,2.2,1,2.2,2.2V317.2z" style="fill: rgb(40, 40, 40);"/>
				</g>
				<g>
					<path class="st3" d="M240.5,317.2c0,1.2-1,2.2-2.2,2.2h-24.7c-1.2,0-2.2-1-2.2-2.2v-18.6c0-1.2,1-2.2,2.2-2.2h24.7&#10;&#9;&#9;&#9;&#9;&#9;&#9;c1.2,0,2.2,1,2.2,2.2V317.2z" style="fill: rgb(40, 40, 40);"/>
				</g>
				<g>
					<path class="st3" d="M205,317.2c0,1.2-1,2.2-2.2,2.2h-24.7c-1.2,0-2.2-1-2.2-2.2v-18.6c0-1.2,1-2.2,2.2-2.2h24.7&#10;&#9;&#9;&#9;&#9;&#9;&#9;c1.2,0,2.2,1,2.2,2.2V317.2z" style="fill: rgb(40, 40, 40);"/>
				</g>
				<g>
					<path class="st3" d="M774.1,288.2c0,1.2-1.3,2.2-2.9,2.2h-33.2c-1.6,0-2.9-1-2.9-2.2v-18.6c0-1.2,1.3-2.2,2.9-2.2h33.2&#10;&#9;&#9;&#9;&#9;&#9;&#9;c1.6,0,2.9,1,2.9,2.2V288.2z" style="fill: rgb(40, 40, 40);"/>
				</g>
				<g>
					<path class="st3" d="M728.6,288.2c0,1.2-1,2.2-2.2,2.2h-24.7c-1.2,0-2.2-1-2.2-2.2v-18.6c0-1.2,1-2.2,2.2-2.2h24.7&#10;&#9;&#9;&#9;&#9;&#9;&#9;c1.2,0,2.2,1,2.2,2.2V288.2z" style="fill: rgb(40, 40, 40);"/>
				</g>
				<g>
					<path class="st3" d="M693.1,288.2c0,1.2-1,2.2-2.2,2.2h-24.7c-1.2,0-2.2-1-2.2-2.2v-18.6c0-1.2,1-2.2,2.2-2.2H691&#10;&#9;&#9;&#9;&#9;&#9;&#9;c1.2,0,2.2,1,2.2,2.2V288.2z" style="fill: rgb(40, 40, 40);"/>
				</g>
				<g>
					<path class="st3" d="M657.6,288.2c0,1.2-1,2.2-2.2,2.2h-24.7c-1.2,0-2.2-1-2.2-2.2v-18.6c0-1.2,1-2.2,2.2-2.2h24.7&#10;&#9;&#9;&#9;&#9;&#9;&#9;c1.2,0,2.2,1,2.2,2.2V288.2z" style="fill: rgb(40, 40, 40);"/>
				</g>
				<g>
					<path class="st3" d="M622.1,288.2c0,1.2-1,2.2-2.2,2.2h-24.7c-1.2,0-2.2-1-2.2-2.2v-18.6c0-1.2,1-2.2,2.2-2.2h24.7&#10;&#9;&#9;&#9;&#9;&#9;&#9;c1.2,0,2.2,1,2.2,2.2V288.2z" style="fill: rgb(40, 40, 40);"/>
				</g>
				<g>
					<path class="st3" d="M586.6,288.2c0,1.2-1,2.2-2.2,2.2h-24.7c-1.2,0-2.2-1-2.2-2.2v-18.6c0-1.2,1-2.2,2.2-2.2h24.7&#10;&#9;&#9;&#9;&#9;&#9;&#9;c1.2,0,2.2,1,2.2,2.2V288.2z" style="fill: rgb(40, 40, 40);"/>
				</g>
				<g>
					<path class="st3" d="M551.1,288.2c0,1.2-1,2.2-2.2,2.2h-24.7c-1.2,0-2.2-1-2.2-2.2v-18.6c0-1.2,1-2.2,2.2-2.2h24.7&#10;&#9;&#9;&#9;&#9;&#9;&#9;c1.2,0,2.2,1,2.2,2.2V288.2z" style="fill: rgb(40, 40, 40);"/>
				</g>
				<g>
					<path class="st3" d="M515.6,288.2c0,1.2-1,2.2-2.2,2.2h-24.7c-1.2,0-2.2-1-2.2-2.2v-18.6c0-1.2,1-2.2,2.2-2.2h24.7&#10;&#9;&#9;&#9;&#9;&#9;&#9;c1.2,0,2.2,1,2.2,2.2V288.2z" style="fill: rgb(40, 40, 40);"/>
				</g>
				<g>
					<path class="st3" d="M480.1,288.2c0,1.2-1,2.2-2.2,2.2h-24.7c-1.2,0-2.2-1-2.2-2.2v-18.6c0-1.2,1-2.2,2.2-2.2h24.7&#10;&#9;&#9;&#9;&#9;&#9;&#9;c1.2,0,2.2,1,2.2,2.2V288.2z" style="fill: rgb(40, 40, 40);"/>
				</g>
				<g>
					<path class="st3" d="M444.6,288.2c0,1.2-1,2.2-2.2,2.2h-24.7c-1.2,0-2.2-1-2.2-2.2v-18.6c0-1.2,1-2.2,2.2-2.2h24.7&#10;&#9;&#9;&#9;&#9;&#9;&#9;c1.2,0,2.2,1,2.2,2.2V288.2z" style="fill: rgb(40, 40, 40);"/>
				</g>
				<g>
					<path class="st3" d="M409.1,288.2c0,1.2-1,2.2-2.2,2.2h-24.7c-1.2,0-2.2-1-2.2-2.2v-18.6c0-1.2,1-2.2,2.2-2.2h24.7&#10;&#9;&#9;&#9;&#9;&#9;&#9;c1.2,0,2.2,1,2.2,2.2V288.2z" style="fill: rgb(40, 40, 40);"/>
				</g>
				<g>
					<path class="st3" d="M373.6,288.2c0,1.2-1,2.2-2.2,2.2h-24.7c-1.2,0-2.2-1-2.2-2.2v-18.6c0-1.2,1-2.2,2.2-2.2h24.7&#10;&#9;&#9;&#9;&#9;&#9;&#9;c1.2,0,2.2,1,2.2,2.2V288.2z" style="fill: rgb(40, 40, 40);"/>
				</g>
				<g>
					<path class="st3" d="M338.1,288.2c0,1.2-1,2.2-2.2,2.2h-24.7c-1.2,0-2.2-1-2.2-2.2v-18.6c0-1.2,1-2.2,2.2-2.2h24.7&#10;&#9;&#9;&#9;&#9;&#9;&#9;c1.2,0,2.2,1,2.2,2.2V288.2z" style="fill: rgb(40, 40, 40);"/>
				</g>
				<g>
					<path class="st3" d="M302.6,288.2c0,1.2-1,2.2-2.2,2.2h-24.7c-1.2,0-2.2-1-2.2-2.2v-18.6c0-1.2,1-2.2,2.2-2.2h24.7&#10;&#9;&#9;&#9;&#9;&#9;&#9;c1.2,0,2.2,1,2.2,2.2V288.2z" style="fill: rgb(40, 40, 40);"/>
				</g>
				<g>
					<path class="st3" d="M267,288.2c0,1.2-1,2.2-2.2,2.2h-24.7c-1.2,0-2.2-1-2.2-2.2v-18.6c0-1.2,1-2.2,2.2-2.2h24.7&#10;&#9;&#9;&#9;&#9;&#9;&#9;c1.2,0,2.2,1,2.2,2.2V288.2z" style="fill: rgb(40, 40, 40);"/>
				</g>
				<g>
					<path class="st3" d="M231.5,288.2c0,1.2-1,2.2-2.2,2.2h-24.7c-1.2,0-2.2-1-2.2-2.2v-18.6c0-1.2,1-2.2,2.2-2.2h24.7&#10;&#9;&#9;&#9;&#9;&#9;&#9;c1.2,0,2.2,1,2.2,2.2V288.2z" style="fill: rgb(40, 40, 40);"/>
				</g>
				<g>
					<path class="st3" d="M199,288.2c0,1.2-0.8,2.2-1.7,2.2h-19.6c-1,0-1.7-1-1.7-2.2v-18.6c0-1.2,0.8-2.2,1.7-2.2h19.6&#10;&#9;&#9;&#9;&#9;&#9;&#9;c1,0,1.7,1,1.7,2.2V288.2z" style="fill: rgb(40, 40, 40);"/>
				</g>
			</g>
			<path class="st5" d="M568,556.8c0,1.7,0.1,3.2-1.5,3.2H382.9c-1.6,0-2.9-1.5-2.9-3.2v-97.9c0-1.7,1.4-2.9,2.9-2.9h183.6&#10;&#9;&#9;&#9;&#9;c1.6,0,1.5,1.2,1.5,2.9V556.8z" style="fill: rgb(232, 232, 232);"/>
			<path d="M 373 534 H 577 V 539 H 373 V 534 Z" class="st2" style="fill: rgb(255, 255, 255);"/>
			<path class="st3" d="M212,253.7c0,2.9-2.3,5.3-5.3,5.3h-22c-3,0-5.6-2.4-5.6-5.3v-0.4c0-2.9,2.6-5.3,5.6-5.3h22&#10;&#9;&#9;&#9;&#9;c3,0,5.3,2.4,5.3,5.3V253.7z" style="fill: rgb(40, 40, 40);"/>
			<path class="st6" d="M186,250.7c-3,0-3,5,0,5S189,250.7,186,250.7z" style="fill: rgb(234, 15, 15);"/>
		</g>
	</g>
</g>
<g transform="matrix(0.8978830575942993, -0.44023510813713074, 0.44023510813713074, 0.8978830575942993, 825.0012358315776, -33.15418624877941)">
	<path class="st1" d="M166,706.6c0-6.4-5.1-11.6-11.6-11.6H78.8c-6.5,0-11.8,5.2-11.8,11.6v153.8c0,6.4,5.3,11.6,11.8,11.6h75.6&#10;&#9;&#9;c6.5,0,11.6-5.2,11.6-11.6V706.6z" style="opacity: 0.1;"/>
	<g>
		<g>
			<path class="st2" d="M167,857.4c0,5.3-4.4,9.6-9.9,9.6H81.1c-5.5,0-10.1-4.3-10.1-9.6V702.6c0-5.3,4.5-9.6,10.1-9.6h76.1&#10;&#9;&#9;&#9;&#9;c5.5,0,9.9,4.3,9.9,9.6V857.4z" style="fill: rgb(255, 255, 255);"/>
			<path class="st7" d="M168,856.6c0,6.3-5.1,11.4-11.6,11.4H80.8c-6.5,0-11.8-5.1-11.8-11.4V702.4c0-6.3,5.3-11.4,11.8-11.4h75.6&#10;&#9;&#9;&#9;&#9;c6.5,0,11.6,5.1,11.6,11.4V856.6z M166,703.1c0-4.5-3.6-8.1-8.1-8.1H81.3c-4.6,0-8.3,3.6-8.3,8.1v153.8c0,4.5,3.7,8.1,8.3,8.1&#10;&#9;&#9;&#9;&#9;h76.6c4.6,0,8.1-3.6,8.1-8.1V703.1z" style="fill: rgb(239, 239, 239);"/>
		</g>
		<path class="st7" d="M144,699.5c0,0.8-0.7,1.5-1.5,1.5h-45c-0.8,0-1.5-0.7-1.5-1.5l0,0c0-0.8,0.7-1.5,1.5-1.5h45&#10;&#9;&#9;&#9;C143.3,698,144,698.7,144,699.5L144,699.5z" style="fill: rgb(239, 239, 239);"/>
		<path class="st3" d="M161,842.9c0,1.7-1.5,3.1-3.4,3.1H81.6c-1.9,0-3.6-1.4-3.6-3.1V707.1c0-1.7,1.6-3.1,3.6-3.1h76.1&#10;&#9;&#9;&#9;c1.9,0,3.4,1.4,3.4,3.1V842.9z" style="fill: rgb(40, 40, 40);"/>
		<path d="M 126.5 856 A 7 7 0 0 1 119.5 863 A 7 7 0 0 1 112.5 856 A 7 7 0 0 1 119.5 849 A 7 7 0 0 1 126.5 856 Z" class="st7" style="fill: rgb(239, 239, 239);"/>
		<path class="st7" d="M104.6,856.5c0,1-0.4,1.5-0.8,1.5H83.3c-0.4,0-0.8-0.5-0.8-1.5l0,0c0-1,0.4-1.5,0.8-1.5h20.4&#10;&#9;&#9;&#9;C104.2,855,104.6,855.5,104.6,856.5L104.6,856.5z" style="fill: rgb(239, 239, 239);"/>
		<path class="st7" d="M156.6,856.5c0,1-0.4,1.5-0.8,1.5h-20.4c-0.4,0-0.8-0.5-0.8-1.5l0,0c0-1,0.4-1.5,0.8-1.5h20.4&#10;&#9;&#9;&#9;C156.2,855,156.6,855.5,156.6,856.5L156.6,856.5z" style="fill: rgb(239, 239, 239);"/>
	</g>
</g>
<g transform="matrix(0.8116255402565002, 0.25559106469154363, -0.25559106469154363, 0.8116255402565002, 1075.3679350503276, 140.81365966796875)">
	<path d="M 1293.199951171875 197.10000610351562 L 1297.5 173 L 1292.0999755859375 172 L 1292.0999755859375 172 L 1269 167.89999389648438 L 1276 128.5 L 1104.5 97.80000305175781 L 1004.7999877929688 80 L 1004.7999877929688 80 L 1003.2999877929688 79.69999694824219 L 933.5999755859375 468.79998779296875 L 962.0999755859375 473.8999938964844 L 955 513.2000122070312 L 976.2000122070312 517 L 971.9000244140625 541.0999755859375 L 1244.5999755859375 590 L 1314.4000244140625 200.89999389648438 Z" class="st8" style="opacity: 0.05;"/>
	<g>
		<path d="M 1250.0999755859375 585.5 L 977.4000244140625 536.5999755859375 L 1047.199951171875 147.5 L 1319.9000244140625 196.39999389648438 Z" class="st9" style="fill: rgb(242, 242, 242);"/>
		<path d="M 1245.5999755859375 579.5999755859375 L 979.7999877929688 532 L 1048.5999755859375 147.8000030517578 L 1314.4000244140625 195.39999389648438 Z" class="st2" style="fill: rgb(255, 255, 255);"/>
		<g>
			<path d="M 1233.300048828125 557.5999755859375 L 960.5999755859375 508.70001220703125 L 1030.300048828125 119.69999694824219 L 1303 168.5 Z" class="st9" style="fill: rgb(242, 242, 242);"/>
			<path d="M 1228.699951171875 551.7000122070312 L 962.9000244140625 504.1000061035156 L 1031.800048828125 119.9000015258789 L 1297.5999755859375 167.5 Z" class="st2" style="fill: rgb(255, 255, 255);"/>
		</g>
		<path d="M 1211.800048828125 513.0999755859375 L 939.0999755859375 464.29998779296875 L 1008.7999877929688 75.19999694824219 L 1281.5 124 Z" class="st9" style="fill: rgb(242, 242, 242);"/>
		<g>
			<path d="M 1207.199951171875 507.20001220703125 L 941.4000244140625 459.6000061035156 L 1010.2999877929688 75.5 L 1276.0999755859375 123 Z" class="st2" style="fill: rgb(255, 255, 255);"/>
			<g>
				
					<path d="M 984.900024 395.299988 H 1046.400024 V 401.799988 H 984.900024 V 395.299988 Z" transform="matrix(0.9844 0.1762 -0.1762 0.9844 86.1246 -172.7369)" class="st4" style="fill: rgb(234, 234, 234);"/>
			</g>
			<g>
				
					<path d="M 987.299988 383.299988 H 1085.299988 V 389.799988 H 987.299988 V 383.299988 Z" transform="matrix(0.9843 0.1762 -0.1762 0.9843 84.3326 -176.5806)" class="st4" style="fill: rgb(234, 234, 234);"/>
			</g>
			<g>
				
					<path d="M 994.900024 344.600006 H 1173.900024 V 351.100006 H 994.900024 V 344.600006 Z" transform="matrix(0.9844 0.1762 -0.1762 0.9844 78.2773 -185.65)" class="st4" style="fill: rgb(234, 234, 234);"/>
			</g>
			<g>
				
					<path d="M 997.400024 332.100006 H 1206.900024 V 338.600006 H 997.400024 V 332.100006 Z" transform="matrix(0.9844 0.1762 -0.1762 0.9844 76.3394 -188.97)" class="st4" style="fill: rgb(234, 234, 234);"/>
			</g>
			<g>
				
					<path d="M 1000.099976 316.799988 H 1209.599976 V 323.299988 H 1000.099976 V 316.799988 Z" transform="matrix(0.9844 0.1762 -0.1762 0.9844 73.6964 -189.693)" class="st4" style="fill: rgb(234, 234, 234);"/>
			</g>
			<g>
				
					<path d="M 1015.200012 302.700012 H 1212.200012 V 309.200012 H 1015.200012 V 302.700012 Z" transform="matrix(0.9844 0.1762 -0.1762 0.9844 71.3422 -191.48)" class="st4" style="fill: rgb(234, 234, 234);"/>
			</g>
			<g>
				
					<path d="M 1006.200012 279.200012 H 1134.200012 V 285.700012 H 1006.200012 V 279.200012 Z" transform="matrix(0.9844 0.1762 -0.1762 0.9844 66.5148 -184.1778)" class="st4" style="fill: rgb(234, 234, 234);"/>
			</g>
			<g>
				
					<path d="M 1008.299988 271.100006 H 1217.799988 V 277.600006 H 1008.299988 V 271.100006 Z" transform="matrix(0.9844 0.1762 -0.1762 0.9844 65.7643 -191.8568)" class="st4" style="fill: rgb(234, 234, 234);"/>
			</g>
			<g>
				
					<path d="M 1011 255.800003 H 1220.5 V 262.300003 H 1011 V 255.800003 Z" transform="matrix(0.9844 0.1762 -0.1762 0.9844 63.1194 -192.5763)" class="st4" style="fill: rgb(234, 234, 234);"/>
			</g>
			<g>
				
					<path d="M 1013.799988 240.600006 H 1223.299988 V 247.100006 H 1013.799988 V 240.600006 Z" transform="matrix(0.9844 0.1762 -0.1762 0.9844 60.4743 -193.2952)" class="st4" style="fill: rgb(234, 234, 234);"/>
			</g>
			<g>
				
					<path d="M 1028.900024 226.5 H 1226.900024 V 233 H 1028.900024 V 226.5 Z" transform="matrix(0.9844 0.1762 -0.1762 0.9844 58.1443 -195.1698)" class="st4" style="fill: rgb(234, 234, 234);"/>
			</g>
			<g>
				
					<path d="M 1024.900024 179.300003 H 1054.900024 V 185.800003 H 1024.900024 V 179.300003 Z" transform="matrix(0.9844 0.1762 -0.1762 0.9844 48.4401 -180.388)" class="st4" style="fill: rgb(234, 234, 234);"/>
			</g>
			<g>
				
					<path d="M 1027.400024 166.699997 H 1087.400024 V 173.199997 H 1027.400024 V 166.699997 Z" transform="matrix(0.9844 0.1762 -0.1762 0.9844 46.493 -183.6705)" class="st4" style="fill: rgb(234, 234, 234);"/>
			</g>
			<g>
				
					<path d="M 1187.099976 156.600006 H 1240.099976 V 163.100006 H 1187.099976 V 156.600006 Z" transform="matrix(0.9843 0.1762 -0.1762 0.9843 47.1635 -211.3817)" class="st4" style="fill: rgb(234, 234, 234);"/>
			</g>
			<g>
				
					<path d="M 1200.800049 142.300003 H 1242.800049 V 148.800003 H 1200.800049 V 142.300003 Z" transform="matrix(0.9844 0.1762 -0.1762 0.9844 44.7689 -213.0231)" class="st4" style="fill: rgb(234, 234, 234);"/>
			</g>
		</g>
	</g>
</g>



<g transform="matrix(0.8905425071716309, 0, 0, 0.8905425071716309, 1035.1963041909523, -148.5308837890624)">
	<path class="st1" d="M854.7,714c-26.8-47.7-87.5-64.6-135.2-37.8c-47.7,26.8-64.7,87.4-37.9,135.1c26.8,47.7,87.5,64.6,135.2,37.8&#10;&#9;&#9;C864.5,822.2,881.5,761.6,854.7,714z" style="opacity: 0.1;"/>
	<g>
		<g>
			<path class="st19" d="M821,842.8c-46,25.8-104.2,9.5-130.1-36.4c-25.9-45.9-9.5-104.1,36.4-130c46-25.8,104.2-9.5,130.1,36.4&#10;&#9;&#9;&#9;&#9;C883.3,758.8,866.9,817,821,842.8z" style="fill: rgb(244, 244, 244);"/>
			<g>
				<path class="st20" d="M799.6,804.9c-25,14.1-56.7,5.2-70.8-19.8c-14.1-25-5.2-56.7,19.8-70.8c25-14.1,56.7-5.2,70.8,19.8&#10;&#9;&#9;&#9;&#9;&#9;C833.5,759.1,824.7,790.8,799.6,804.9z" style="fill: rgb(114, 82, 54);"/>
				<path class="st2" d="M724.7,787.4c-15.3-27.3-5.6-61.9,21.6-77.2c27.3-15.3,61.9-5.6,77.3,21.6c15.3,27.3,5.6,61.9-21.6,77.2&#10;&#9;&#9;&#9;&#9;&#9;C774.7,824.4,740,814.7,724.7,787.4z M815.3,736.4c-12.8-22.7-41.6-30.8-64.4-18c-22.7,12.8-30.8,41.6-18,64.3&#10;&#9;&#9;&#9;&#9;&#9;c12.8,22.7,41.6,30.8,64.4,18C820,788,828.1,759.1,815.3,736.4z" style="fill: rgb(255, 255, 255);"/>
			</g>
			<path class="st21" d="M812.9,735c-12.9-20.2-39.6-27.1-60.8-15.2c-15.6,8.8-24,25.3-23.2,42c6.1-8.7,14.1-16.3,24-21.8&#10;&#9;&#9;&#9;&#9;C772,729.3,793.8,728.1,812.9,735z" style="opacity: 0.3;"/>
			<path class="st2" d="M687.6,808.2c-26.8-47.7-9.8-108.3,37.9-135.1c47.7-26.8,108.4-9.8,135.2,37.8&#10;&#9;&#9;&#9;&#9;c26.8,47.7,9.8,108.3-37.9,135.1C775.1,872.9,714.5,855.9,687.6,808.2z M854.1,714.6c-24.8-44.1-80.9-59.8-125-35&#10;&#9;&#9;&#9;&#9;c-44.1,24.8-59.8,80.8-35,124.9c24.8,44.1,80.9,59.8,125,35C863.2,814.7,878.9,758.7,854.1,714.6z" style="fill: rgb(255, 255, 255);"/>
		</g>
		<path class="st2" d="M826.8,742c-1.7,0.9-3.8,0.4-4.8-1.3l-7.1-12.6c-0.9-1.7-0.3-3.8,1.3-4.8l23.1-13c1.7-0.9,3.8-0.3,4.8,1.3&#10;&#9;&#9;&#9;l7.1,12.6c0.9,1.7,0.4,3.8-1.3,4.8L826.8,742z" style="fill: rgb(255, 255, 255);"/>
	</g>
</g>
<g transform="matrix(1, 0, 0, 1, 1113.8757170327494, -87.93935394287098)">
	<path d="M 508.5 695.5999755859375 L 499.5 693.4000244140625 L 490.8999938964844 664.2999877929688 L 440.6000061035156 679.2999877929688 L 376.5 663.9000244140625 L 331.20001220703125 711.7000122070312 L 283.79998779296875 725.7999877929688 L 292 753.2000122070312 L 283.20001220703125 762.5 L 322 892.7999877929688 L 547.2999877929688 825.9000244140625 Z" class="st1" style="opacity: 0.1;"/>
	<g>
		<path d="M 550.2999877929688 822.9000244140625 L 325 889.7999877929688 L 286.20001220703125 759.5 L 511.5 692.5999755859375 Z" class="st2" style="fill: rgb(255, 255, 255);"/>
		<path d="M 379.5 660.9000244140625 L 511.5 692.5999755859375 L 286.20001220703125 759.5 Z" class="st2" style="fill: rgb(255, 255, 255);"/>
		<path d="M 418.29998779296875 791.2000122070312 L 511.5 692.5999755859375 L 286.20001220703125 759.5 Z" class="st10" style="fill: rgb(206, 206, 206);"/>
		<path d="M 298.29998779296875 761.5999755859375 L 286.79998779296875 722.7999877929688 L 493.8999938964844 661.2999877929688 L 504.8999938964844 698.2000122070312 L 418 790.2000122070312 Z" class="st11" style="fill: rgb(252, 231, 224);"/>
		
			<path d="M 433 691.700012 H 480.5 V 695.200012 H 433 V 691.700012 Z" transform="matrix(0.9586 -0.2847 0.2847 0.9586 -178.5065 158.7165)" class="st12" style="fill: rgb(247, 199, 186);"/>
		
			<path d="M 445.299988 696.900024 H 482.299988 V 700.400024 H 445.299988 V 696.900024 Z" transform="matrix(0.9586 -0.2847 0.2847 0.9586 -179.7036 160.9379)" class="st12" style="fill: rgb(247, 199, 186);"/>
		
			<path d="M 331 857.5 H 378.5 V 861 H 331 V 857.5 Z" transform="matrix(0.9586 -0.2847 0.2847 0.9586 -229.9468 136.5595)" class="st13" style="fill: rgb(221, 221, 221);"/>
		
			<path d="M 338.5 864.200012 H 375.5 V 867.700012 H 338.5 V 864.200012 Z" transform="matrix(0.9586 -0.2847 0.2847 0.9586 -231.7328 137.4616)" class="st13" style="fill: rgb(221, 221, 221);"/>
	</g>
</g></svg>