<?xml version="1.0" encoding="utf-8"?>
<!-- Generator: Adobe Illustrator 19.0.0, SVG Export Plug-In . SVG Version: 6.00 Build 0)  -->
<svg version="1.1" id="Layer_1" xmlns="http://www.w3.org/2000/svg" xmlns:xlink="http://www.w3.org/1999/xlink" x="0px" y="0px"
	 viewBox="-707 529 24 24" style="enable-background:new -707 529 24 24;" xml:space="preserve">
<style type="text/css">
	.st0{fill:#FFFFFF;}
</style>
<circle cx="-695" cy="541" r="12"/>
<path class="st0" d="M-688,543.9c-0.1,2.5-1.5,4-4.1,4.1c-0.7,0-1,0-2.9,0s-2.1,0-2.9,0c-2.5-0.1-4-1.5-4.1-4.1c0-0.7,0-1,0-2.9
	s0-2.1,0-2.9c0.1-2.5,1.5-4,4.1-4.1c0.7,0,1,0,2.9,0s2.1,0,2.9,0c2.5,0.1,4,1.5,4.1,4.1c0,0.7,0,1,0,2.9S-688,543.1-688,543.9z
	 M-692.2,535.3c-0.7,0-1,0-2.8,0s-2.1,0-2.8,0c-1.9,0.1-2.8,1-2.9,2.9c0,0.7,0,1,0,2.8s0,2.1,0,2.8c0.1,1.9,1,2.8,2.9,2.9
	c0.7,0,1,0,2.8,0c1.9,0,2.1,0,2.8,0c1.9-0.1,2.8-1,2.9-2.9c0-0.7,0-1,0-2.8s0-2.1,0-2.8C-689.4,536.3-690.3,535.4-692.2,535.3z"/>
<circle class="st0" cx="-691.3" cy="537.3" r="0.8"/>
<path class="st0" d="M-695,537.4c-2,0-3.6,1.6-3.6,3.6c0,2,1.6,3.6,3.6,3.6s3.6-1.6,3.6-3.6S-693,537.4-695,537.4z M-695,543.3
	c-1.3,0-2.3-1-2.3-2.3s1-2.3,2.3-2.3s2.3,1,2.3,2.3S-693.7,543.3-695,543.3z"/>
</svg>
