<svg xmlns="http://www.w3.org/2000/svg" viewBox="0 0 124.19 103.68"><defs><style>.cls-1{fill:#fbacda;}.cls-2{fill:#edd9ac;}.cls-3{fill:#534741;}.cls-4{fill:#ff8c92;}</style></defs><title>Asset 1</title><g id="Layer_2" data-name="Layer 2"><g id="Caller_Icon" data-name="Caller Icon"><path class="cls-1" d="M47.67,87.68s2.5,15.67-15.33,16S16.17,88,16.17,88,6.55,91.62,6.5,82.27C6.42,66.7,16.48,47.83,27,31Z"/><path class="cls-2" d="M117.05,60.05c0,27-21.89,34.13-48.88,34.13S19.3,87.05,19.3,60.05a48.88,48.88,0,0,1,97.75,0Z"/><path class="cls-1" d="M56,12.08S96.17-10.65,115.17,31c6.55,14.36,9.3,33.47,9,50.67-.46,26.34-21,16.5-21,16.5S88.5,106.35,83.84,99.5C76.48,88.68,95.5,80.68,94,58.78,91.89,29.18,56,12.08,56,12.08Z"/><ellipse class="cls-3" cx="43.49" cy="49.89" rx="5.84" ry="8.89"/><ellipse class="cls-3" cx="73.33" cy="49.03" rx="5.84" ry="8.89"/><path class="cls-4" d="M79.62,72.64l-3.3,3a26.2,26.2,0,0,1-34.41.46l-3.56-3a1.32,1.32,0,0,1,.84-2.33l39.54-.37A1.32,1.32,0,0,1,79.62,72.64Z"/><path class="cls-1" d="M71.93,18.13S52.51,7.55,38.24,26.33s-1.37,38.44-15.9,46.13c-11.29,6-17.81.73-21.89-5.73a2.83,2.83,0,0,1,1.61-4.28C6.4,61.34,13,58.15,11.93,49,10.43,35.51,13.4,8.8,32.42,2.74S67.49.18,71.93,18.13Z"/></g></g></svg>