<?xml version="1.0" encoding="utf-8"?>
<!-- Generator: Adobe Illustrator 19.0.0, SVG Export Plug-In . SVG Version: 6.00 Build 0)  -->
<svg version="1.1" id="Layer_1" xmlns="http://www.w3.org/2000/svg" xmlns:xlink="http://www.w3.org/1999/xlink" x="0px" y="0px"
	 viewBox="-707 529 24 24" style="enable-background:new -707 529 24 24;" xml:space="preserve">
<style type="text/css">
	.st0{fill:#FFFFFF;}
</style>
<circle cx="-695" cy="541" r="12"/>
<path class="st0" d="M-688.9,538.6c0.2,4-2.8,8.5-8.2,8.5c-1.6,0-3.1-0.5-4.4-1.3c1.5,0.2,3-0.2,4.3-1.2c-1.3,0-2.3-0.9-2.7-2
	c0.5,0.1,0.9,0.1,1.3,0c-1.4-0.3-2.3-1.5-2.3-2.9c0.4,0.2,0.8,0.3,1.3,0.4c-1.3-0.9-1.6-2.5-0.9-3.8c1.4,1.7,3.5,2.9,5.9,3
	c-0.4-1.8,0.9-3.5,2.8-3.5c0.8,0,1.6,0.3,2.1,0.9c0.7-0.1,1.3-0.4,1.8-0.7c-0.2,0.7-0.7,1.2-1.3,1.6c0.6-0.1,1.1-0.2,1.6-0.5
	C-687.9,537.7-688.4,538.2-688.9,538.6z"/>
</svg>
